<svg width="4" height="15" viewBox="0 0 4 15" fill="none" xmlns="http://www.w3.org/2000/svg">
<path d="M-0.000230876 12.1827C-0.000230876 13.2882 0.894366 14.1828 1.99988 14.1828C3.1054 14.1828 4 13.2882 4 12.1827C4 11.0772 3.1054 10.1826 1.99988 10.1826C0.894366 10.1826 -0.000230876 11.0772 -0.000230876 12.1827ZM2.90903 12.1827C2.90903 12.6846 2.50173 13.0918 1.99988 13.0918C1.49804 13.0918 1.09074 12.6846 1.09074 12.1827C1.09074 11.6809 1.49804 11.2736 1.99988 11.2736C2.50173 11.2736 2.90903 11.6809 2.90903 12.1827Z" fill="#292D32"/>
<path d="M-0.000230876 2.00013C-0.000230876 3.10565 0.894366 4.00024 1.99988 4.00024C3.1054 4.00024 4 3.10565 4 2.00013C4 0.894611 3.1054 1.38621e-05 1.99988 1.38621e-05C0.894366 1.38621e-05 -0.000230876 0.894611 -0.000230876 2.00013ZM2.90903 2.00013C2.90903 2.50198 2.50173 2.90927 1.99988 2.90927C1.49804 2.90927 1.09074 2.50198 1.09074 2.00013C1.09074 1.49828 1.49804 1.09099 1.99988 1.09099C2.50173 1.09099 2.90903 1.49828 2.90903 2.00013Z" fill="#292D32"/>
<path d="M-0.000230876 7.09142C-0.000230876 8.19693 0.894366 9.09153 1.99988 9.09153C3.1054 9.09153 4 8.19693 4 7.09142C4 5.9859 3.1054 5.0913 1.99988 5.0913C0.894366 5.0913 -0.000230876 5.9859 -0.000230876 7.09142ZM2.90903 7.09142C2.90903 7.59326 2.50173 8.00056 1.99988 8.00056C1.49804 8.00056 1.09074 7.59326 1.09074 7.09142C1.09074 6.58957 1.49804 6.18227 1.99988 6.18227C2.50173 6.18227 2.90903 6.58957 2.90903 7.09142Z" fill="#292D32"/>
</svg>
